<svg width="29" height="22" viewBox="0 0 29 22" fill="none" xmlns="http://www.w3.org/2000/svg">
<g filter="url(#filter0_d_2101_9470)">
<path d="M16.2649 24.5H17C18.9082 24.5 20.7253 23.684 21.9931 22.2578L22.7987 21.3515C23.5725 20.4809 24 19.3566 24 18.1918V11.1285C24 10.2291 23.2709 9.5 22.3715 9.5C21.827 9.5 21.3186 9.77212 21.0166 10.2252L20.868 10.448C20.7577 10.6134 20.5 10.5354 20.5 10.3366V9.80933C20.5 9.01854 20.0185 8.30742 19.2843 8.01373C18.5875 7.73502 17.7999 8.10033 17.5626 8.81227L17.5005 8.99865C17.4083 9.27503 17 9.20877 17 8.91744V8.53683C17 7.91765 16.6038 7.36793 16.0164 7.17213C15.6812 7.0604 15.3188 7.0604 14.9836 7.17213L14 7.5V2.75C14 1.7835 13.2165 1 12.25 1C11.2835 1 10.5 1.7835 10.5 2.75V13.3471C10.5 13.588 10.2087 13.7087 10.0383 13.5383L9.01531 12.5153C8.12475 11.6248 6.74238 11.4546 5.66241 12.1026C5.29195 12.3248 5.16216 12.7994 5.36793 13.1793L9.23056 20.3103C10.6289 22.8918 13.329 24.5 16.2649 24.5Z" fill="white"/>
<path d="M14 9.5V7.5M14 7.5V2.75C14 1.7835 13.2165 1 12.25 1V1C11.2835 1 10.5 1.7835 10.5 2.75V13.3471C10.5 13.588 10.2087 13.7087 10.0383 13.5383L9.01531 12.5153C8.12475 11.6248 6.74238 11.4546 5.66241 12.1026V12.1026C5.29195 12.3248 5.16216 12.7994 5.36793 13.1793L9.23056 20.3103C10.6289 22.8918 13.329 24.5 16.2649 24.5H17V24.5C18.9082 24.5 20.7253 23.684 21.9931 22.2578L22.7987 21.3515C23.5725 20.4809 24 19.3566 24 18.1918V11.1285C24 10.2291 23.2709 9.5 22.3715 9.5V9.5C21.827 9.5 21.3186 9.77212 21.0166 10.2252L20.868 10.448C20.7577 10.6134 20.5 10.5354 20.5 10.3366V9.80933C20.5 9.01854 20.0185 8.30742 19.2843 8.01373V8.01373C18.5875 7.73502 17.7999 8.10033 17.5626 8.81227L17.5004 8.99865C17.4083 9.27503 17 9.20877 17 8.91744V8.53683C17 7.91765 16.6038 7.36793 16.0164 7.17213V7.17213C15.6812 7.0604 15.3188 7.0604 14.9836 7.17213L14 7.5Z" stroke="#082668"/>
</g>
<defs>
<filter id="filter0_d_2101_9470" x="0.770508" y="0.5" width="27.7295" height="32.5" filterUnits="userSpaceOnUse" color-interpolation-filters="sRGB">
<feFlood flood-opacity="0" result="BackgroundImageFix"/>
<feColorMatrix in="SourceAlpha" type="matrix" values="0 0 0 0 0 0 0 0 0 0 0 0 0 0 0 0 0 0 127 0" result="hardAlpha"/>
<feOffset dy="4"/>
<feGaussianBlur stdDeviation="2"/>
<feColorMatrix type="matrix" values="0 0 0 0 0 0 0 0 0 0 0 0 0 0 0 0 0 0 0.25 0"/>
<feBlend mode="normal" in2="BackgroundImageFix" result="effect1_dropShadow_2101_9470"/>
<feBlend mode="normal" in="SourceGraphic" in2="effect1_dropShadow_2101_9470" result="shape"/>
</filter>
</defs>
</svg>
