<svg width="96" height="96" viewBox="0 0 96 96" fill="none" xmlns="http://www.w3.org/2000/svg">
<g clip-path="url(#clip0_2101_9681)">
<mask id="mask0_2101_9681" style="mask-type:alpha" maskUnits="userSpaceOnUse" x="0" y="0" width="96" height="96">
<rect width="96" height="96" fill="#CED4E1"/>
</mask>
<g mask="url(#mask0_2101_9681)">
<rect width="96" height="96" fill="#395186"/>
<path d="M26.8979 65.098C26.8979 65.91 26.6179 66.5867 26.0579 67.128C25.5072 67.66 24.6626 67.926 23.5239 67.926H21.6479V72H20.3739V62.242H23.5239C24.6252 62.242 25.4606 62.508 26.0299 63.04C26.6086 63.572 26.8979 64.258 26.8979 65.098ZM23.5239 66.876C24.2332 66.876 24.7559 66.722 25.0919 66.414C25.4279 66.106 25.5959 65.6673 25.5959 65.098C25.5959 63.894 24.9052 63.292 23.5239 63.292H21.6479V66.876H23.5239ZM35.4813 67.87C35.4813 68.1127 35.4673 68.3693 35.4393 68.64H29.3073C29.354 69.396 29.6107 69.9887 30.0773 70.418C30.5533 70.838 31.1273 71.048 31.7993 71.048C32.35 71.048 32.8073 70.922 33.1713 70.67C33.5447 70.4087 33.806 70.0633 33.9553 69.634H35.3273C35.122 70.3713 34.7113 70.9733 34.0953 71.44C33.4793 71.8973 32.714 72.126 31.7993 72.126C31.0713 72.126 30.418 71.9627 29.8393 71.636C29.27 71.3093 28.822 70.8473 28.4953 70.25C28.1687 69.6433 28.0053 68.9433 28.0053 68.15C28.0053 67.3567 28.164 66.6613 28.4813 66.064C28.7987 65.4667 29.242 65.0093 29.8113 64.692C30.39 64.3653 31.0527 64.202 31.7993 64.202C32.5273 64.202 33.1713 64.3607 33.7313 64.678C34.2913 64.9953 34.7207 65.434 35.0193 65.994C35.3273 66.5447 35.4813 67.17 35.4813 67.87ZM34.1653 67.604C34.1653 67.1187 34.058 66.7033 33.8433 66.358C33.6287 66.0033 33.3347 65.7373 32.9613 65.56C32.5973 65.3733 32.1913 65.28 31.7433 65.28C31.0993 65.28 30.5487 65.4853 30.0913 65.896C29.6433 66.3067 29.3867 66.876 29.3213 67.604H34.1653ZM38.717 65.378V69.9C38.717 70.2733 38.7963 70.5393 38.955 70.698C39.1136 70.8473 39.389 70.922 39.781 70.922H40.719V72H39.571C38.8616 72 38.3296 71.8367 37.975 71.51C37.6203 71.1833 37.443 70.6467 37.443 69.9V65.378H36.449V64.328H37.443V62.396H38.717V64.328H40.719V65.378H38.717ZM42.4586 62.242H43.8726L42.5286 65.42H41.6326L42.4586 62.242ZM48.0411 72.126C47.4531 72.126 46.9257 72.028 46.4591 71.832C45.9924 71.6267 45.6237 71.3467 45.3531 70.992C45.0824 70.628 44.9331 70.2127 44.9051 69.746H46.2211C46.2584 70.1287 46.4357 70.4413 46.7531 70.684C47.0797 70.9267 47.5044 71.048 48.0271 71.048C48.5124 71.048 48.8951 70.9407 49.1751 70.726C49.4551 70.5113 49.5951 70.2407 49.5951 69.914C49.5951 69.578 49.4457 69.3307 49.1471 69.172C48.8484 69.004 48.3864 68.8407 47.7611 68.682C47.1917 68.5327 46.7251 68.3833 46.3611 68.234C46.0064 68.0753 45.6984 67.8467 45.4371 67.548C45.1851 67.24 45.0591 66.8387 45.0591 66.344C45.0591 65.952 45.1757 65.5927 45.4091 65.266C45.6424 64.9393 45.9737 64.6827 46.4031 64.496C46.8324 64.3 47.3224 64.202 47.8731 64.202C48.7224 64.202 49.4084 64.4167 49.9311 64.846C50.4537 65.2753 50.7337 65.8633 50.7711 66.61H49.4971C49.4691 66.2087 49.3057 65.8867 49.0071 65.644C48.7177 65.4013 48.3257 65.28 47.8311 65.28C47.3737 65.28 47.0097 65.378 46.7391 65.574C46.4684 65.77 46.3331 66.0267 46.3331 66.344C46.3331 66.596 46.4124 66.806 46.5711 66.974C46.7391 67.1327 46.9444 67.2633 47.1871 67.366C47.4391 67.4593 47.7844 67.5667 48.2231 67.688C48.7737 67.8373 49.2217 67.9867 49.5671 68.136C49.9124 68.276 50.2064 68.4907 50.4491 68.78C50.7011 69.0693 50.8317 69.4473 50.8411 69.914C50.8411 70.334 50.7244 70.712 50.4911 71.048C50.2577 71.384 49.9264 71.65 49.4971 71.846C49.0771 72.0327 48.5917 72.126 48.0411 72.126ZM57.6459 65.742C57.8979 65.3033 58.2713 64.9393 58.7659 64.65C59.2699 64.3513 59.8533 64.202 60.5159 64.202C61.1973 64.202 61.8133 64.3653 62.3639 64.692C62.9239 65.0187 63.3626 65.4807 63.6799 66.078C63.9973 66.666 64.1559 67.352 64.1559 68.136C64.1559 68.9107 63.9973 69.6013 63.6799 70.208C63.3626 70.8147 62.9239 71.286 62.3639 71.622C61.8133 71.958 61.1973 72.126 60.5159 72.126C59.8626 72.126 59.2839 71.9813 58.7799 71.692C58.2853 71.3933 57.9073 71.0247 57.6459 70.586V75.64H56.3719V64.328H57.6459V65.742ZM62.8539 68.136C62.8539 67.5573 62.7373 67.0533 62.5039 66.624C62.2706 66.1947 61.9533 65.868 61.5519 65.644C61.1599 65.42 60.7259 65.308 60.2499 65.308C59.7833 65.308 59.3493 65.4247 58.9479 65.658C58.5559 65.882 58.2386 66.2133 57.9959 66.652C57.7626 67.0813 57.6459 67.5807 57.6459 68.15C57.6459 68.7287 57.7626 69.2373 57.9959 69.676C58.2386 70.1053 58.5559 70.4367 58.9479 70.67C59.3493 70.894 59.7833 71.006 60.2499 71.006C60.7259 71.006 61.1599 70.894 61.5519 70.67C61.9533 70.4367 62.2706 70.1053 62.5039 69.676C62.7373 69.2373 62.8539 68.724 62.8539 68.136ZM66.4909 63.082C66.2482 63.082 66.0429 62.998 65.8749 62.83C65.7069 62.662 65.6229 62.4567 65.6229 62.214C65.6229 61.9713 65.7069 61.766 65.8749 61.598C66.0429 61.43 66.2482 61.346 66.4909 61.346C66.7242 61.346 66.9202 61.43 67.0789 61.598C67.2469 61.766 67.3309 61.9713 67.3309 62.214C67.3309 62.4567 67.2469 62.662 67.0789 62.83C66.9202 62.998 66.7242 63.082 66.4909 63.082ZM67.1069 64.328V72H65.8329V64.328H67.1069ZM68.8022 68.15C68.8022 67.3567 68.9609 66.666 69.2782 66.078C69.5955 65.4807 70.0342 65.0187 70.5942 64.692C71.1635 64.3653 71.8122 64.202 72.5402 64.202C73.4829 64.202 74.2575 64.4307 74.8642 64.888C75.4802 65.3453 75.8862 65.98 76.0822 66.792H74.7102C74.5795 66.3253 74.3229 65.9567 73.9402 65.686C73.5669 65.4153 73.1002 65.28 72.5402 65.28C71.8122 65.28 71.2242 65.532 70.7762 66.036C70.3282 66.5307 70.1042 67.2353 70.1042 68.15C70.1042 69.074 70.3282 69.788 70.7762 70.292C71.2242 70.796 71.8122 71.048 72.5402 71.048C73.1002 71.048 73.5669 70.9173 73.9402 70.656C74.3135 70.3947 74.5702 70.0213 74.7102 69.536H76.0822C75.8769 70.32 75.4662 70.95 74.8502 71.426C74.2342 71.8927 73.4642 72.126 72.5402 72.126C71.8122 72.126 71.1635 71.9627 70.5942 71.636C70.0342 71.3093 69.5955 70.8473 69.2782 70.25C68.9609 69.6527 68.8022 68.9527 68.8022 68.15Z" fill="white"/>
<path d="M44.5455 33.2254C46.1599 33.0104 47.259 31.0611 47.0005 28.8715C46.7419 26.6819 45.2236 25.0811 43.6093 25.2961C41.9949 25.511 40.8957 27.4603 41.1543 29.6499C41.4128 31.8395 42.9311 33.4403 44.5455 33.2254Z" fill="white"/>
<path d="M48.0786 45.654C49.1876 45.663 49.7342 46.0289 50.2826 46.3959C50.8345 46.7653 51.3881 47.1359 52.5186 47.1452C55.8778 47.1727 56.3125 42.8118 54.1487 40.6118C53.4422 39.8934 52.9744 39.0995 52.5357 38.3549C51.6306 36.819 50.8492 35.4928 48.3516 35.4723C45.8554 35.4519 45.0041 36.7632 44.0178 38.2826C43.5388 39.0204 43.028 39.8073 42.2815 40.5145C39.9978 42.6781 40.2014 47.0442 43.5605 47.0718C44.6911 47.081 45.2643 46.7197 45.8358 46.3595C46.4036 46.0016 46.9695 45.6449 48.0786 45.654Z" fill="white"/>
<path d="M53.6317 25.3628C55.2339 25.6042 56.228 27.5706 55.8522 29.755C55.4763 31.9394 53.8728 33.5146 52.2707 33.2733C50.6686 33.032 49.6744 31.0655 50.0503 28.8811C50.4261 26.6967 52.0296 25.1215 53.6317 25.3628Z" fill="white"/>
<path d="M39.4208 38.147C40.5314 37.6306 40.889 36.0352 40.2195 34.5834C39.55 33.1316 38.1069 32.3734 36.9963 32.8897C35.8856 33.4061 35.528 35.0016 36.1975 36.4534C36.867 37.9051 38.3101 38.6634 39.4208 38.147Z" fill="white"/>
<path d="M59.8325 33.0589C60.915 33.5932 61.1868 35.1939 60.4398 36.634C59.6927 38.0742 58.2096 38.8085 57.1271 38.2741C56.0447 37.7398 55.7728 36.1391 56.5199 34.699C57.2669 33.2588 58.7501 32.5245 59.8325 33.0589Z" fill="white"/>
</g>
</g>
<defs>
<clipPath id="clip0_2101_9681">
<rect width="96" height="96" rx="48" fill="white"/>
</clipPath>
</defs>
</svg>
