<svg width="101" height="48" viewBox="0 0 101 48" fill="none" xmlns="http://www.w3.org/2000/svg">
<g clip-path="url(#clip0_2101_9301)">
<path d="M28.0999 12.2159L23.6938 8.20166L24.7012 8.37973C26.7516 8.8071 27.9014 8.975 28.0999 12.2159Z" fill="#3969B2"/>
<path d="M22.2031 19.0945H31.239C38.8147 19.0945 42.0301 22.0199 42.0301 25.6272C42.0301 30.5674 36.2759 31.0253 33.9355 31.2186V31.936H39.237L42.4575 40.0001H33.2894L30.3334 32.7806H29.5549L30.8574 40.0001H22.2082V19.0945H22.2031ZM30.4606 29.2395C30.8167 29.27 31.2085 29.27 31.4374 29.27C33.096 29.27 33.9101 28.6849 33.9101 27.5809C33.9101 26.4768 33.096 25.9223 31.4374 25.9223C31.2085 25.9223 30.8218 25.9223 30.4606 25.9528V29.2344V29.2395Z" fill="#3969B2"/>
<path d="M43.2358 19.0945H59.7456L58.4533 26.5074H51.4984V28.4916H56.5047V30.832H51.4984V32.5872H58.4533L57.6749 40.0001H43.2409V19.0945H43.2358Z" fill="#3969B2"/>
<path d="M70.125 40.0001L69.9622 36.3573H67.6523L67.4895 40.0001H58.8403L62.2237 19.0945H75.4214L78.8047 40.0001H70.125ZM69.8655 33.8897L69.4738 25.3372H68.2069L67.8151 33.8897H69.8655Z" fill="#3969B2"/>
<path d="M77.3188 19.0944L97.6699 18.4788C97.6699 18.4788 99.4048 26.5022 91.8088 26.5022V39.9949H83.5208V26.5022H78.8045L77.3188 19.0893V19.0944Z" fill="#3969B2"/>
<path d="M98.9927 22.5643C99.4557 20.7836 99.5015 19.0232 98.9266 17.2832H96.286C96.286 17.2832 96.286 14.429 93.0655 11.8647C89.8449 9.30052 95.8383 5.87136 98.428 10.43C103.017 18.5145 98.9927 22.5592 98.9927 22.5592V22.5643Z" fill="#3969B2"/>
<path d="M28.181 13.4623L21.4906 7.90642L12.9381 6.32921L12.4599 6.2936C11.1625 1.62303 8.7814 -0.137336 5.93225 0.0102095C2.00959 0.208632 9.38176 6.04939 9.38176 6.04939L8.13526 6.59378C8.13526 6.59378 1.53643 4.1313 0.269574 7.66221C-1.23132 11.8342 3.97855 9.69731 5.50488 7.77922L5.26067 16.9372H10.8674V39.9949H19.6387V16.9423H25.047C26.9142 16.9423 28.3744 15.3244 28.176 13.4623H28.181Z" fill="#3969B2"/>
<path d="M9.97202 18.3262L20.9565 20.926L20.0814 24.2941L9.38184 20.3409L9.97202 18.3262Z" fill="#ED3360"/>
</g>
<defs>
<clipPath id="clip0_2101_9301">
<rect width="100.621" height="40" fill="white"/>
</clipPath>
</defs>
</svg>
