<svg width="101" height="48" viewBox="0 0 101 48" fill="none" xmlns="http://www.w3.org/2000/svg">
<g clip-path="url(#clip0_2101_5944)">
<path d="M28.0997 12.2159L23.6937 8.20166L24.7011 8.37973C26.7515 8.8071 27.9013 8.975 28.0997 12.2159Z" fill="#3969B2"/>
<path d="M22.203 19.0945H31.2389C38.8146 19.0945 42.03 22.0199 42.03 25.6272C42.03 30.5674 36.2758 31.0253 33.9354 31.2186V31.936H39.2368L42.4574 40.0001H33.2892L30.3332 32.7806H29.5548L30.8573 40.0001H22.2081V19.0945H22.203ZM30.4604 29.2395C30.8166 29.27 31.2083 29.27 31.4373 29.27C33.0959 29.27 33.9099 28.6849 33.9099 27.5809C33.9099 26.4768 33.0959 25.9223 31.4373 25.9223C31.2083 25.9223 30.8217 25.9223 30.4604 25.9528V29.2344V29.2395Z" fill="#3969B2"/>
<path d="M43.2358 19.0945H59.7456L58.4533 26.5074H51.4984V28.4916H56.5047V30.832H51.4984V32.5872H58.4533L57.6749 40.0001H43.2409V19.0945H43.2358Z" fill="#3969B2"/>
<path d="M70.1246 40.0001L69.9618 36.3573H67.652L67.4892 40.0001H58.84L62.2233 19.0945H75.421L78.8043 40.0001H70.1246ZM69.8652 33.8897L69.4734 25.3372H68.2065L67.8148 33.8897H69.8652Z" fill="#3969B2"/>
<path d="M77.3187 19.0944L97.6698 18.4788C97.6698 18.4788 99.4047 26.5022 91.8087 26.5022V39.9949H83.5207V26.5022H78.8044L77.3187 19.0893V19.0944Z" fill="#3969B2"/>
<path d="M98.9926 22.5643C99.4556 20.7836 99.5014 19.0232 98.9265 17.2832H96.2859C96.2859 17.2832 96.2859 14.429 93.0654 11.8647C89.8448 9.30052 95.8382 5.87136 98.4279 10.43C103.017 18.5145 98.9926 22.5592 98.9926 22.5592V22.5643Z" fill="#3969B2"/>
<path d="M28.1811 13.4623L21.4907 7.90642L12.9382 6.32921L12.4599 6.2936C11.1625 1.62303 8.78146 -0.137336 5.93232 0.0102095C2.00965 0.208632 9.38182 6.04939 9.38182 6.04939L8.13532 6.59378C8.13532 6.59378 1.53649 4.1313 0.269635 7.66221C-1.23126 11.8342 3.97861 9.69731 5.50494 7.77922L5.26073 16.9372H10.8674V39.9949H19.6388V16.9423H25.047C26.9143 16.9423 28.3744 15.3244 28.176 13.4623H28.1811Z" fill="#3969B2"/>
<path d="M9.97202 18.3262L20.9565 20.926L20.0814 24.2941L9.38184 20.3409L9.97202 18.3262Z" fill="#ED3360"/>
</g>
<defs>
<clipPath id="clip0_2101_5944">
<rect width="100.621" height="40" fill="white"/>
</clipPath>
</defs>
</svg>
