<svg width="21" height="18" viewBox="0 0 21 18" fill="none" xmlns="http://www.w3.org/2000/svg">
<path d="M7.43658 6.78029C8.72809 6.60832 9.6074 5.04889 9.40057 3.2972C9.19374 1.54551 7.9791 0.264894 6.6876 0.436862C5.39609 0.60883 4.51678 2.16826 4.72361 3.91995C4.93044 5.67164 6.14508 6.95225 7.43658 6.78029Z" fill="#20469E"/>
<path d="M10.2631 16.7232C11.1503 16.7304 11.5876 17.0231 12.0263 17.3168C12.4678 17.6123 12.9107 17.9087 13.8151 17.9161C16.5024 17.9382 16.8502 14.4494 15.1192 12.6894C14.554 12.1147 14.1797 11.4796 13.8287 10.8839C13.1047 9.65517 12.4796 8.59422 10.4815 8.57785C8.48454 8.56148 7.80349 9.61058 7.01443 10.8261C6.63125 11.4163 6.22259 12.0458 5.6254 12.6116C3.79843 14.3424 3.96131 17.8354 6.6486 17.8574C7.55304 17.8648 8.01166 17.5758 8.46881 17.2876C8.92305 17.0013 9.37583 16.7159 10.2631 16.7232Z" fill="#20469E"/>
<path d="M14.7056 0.490278C15.9873 0.683334 16.7826 2.25649 16.4819 4.00402C16.1812 5.75155 14.8985 7.0117 13.6168 6.81864C12.335 6.62558 11.5397 5.05243 11.8404 3.3049C12.1411 1.55737 13.4239 0.297222 14.7056 0.490278Z" fill="#20469E"/>
<path d="M3.3368 10.7176C4.22531 10.3045 4.51139 9.02812 3.97579 7.86671C3.44018 6.7053 2.28571 6.09868 1.3972 6.51178C0.508695 6.92489 0.222613 8.20128 0.75822 9.36269C1.29383 10.5241 2.4483 11.1307 3.3368 10.7176Z" fill="#20469E"/>
<path d="M19.6662 6.64708C20.5322 7.07456 20.7497 8.35508 20.152 9.50721C19.5544 10.6593 18.3679 11.2468 17.5019 10.8193C16.636 10.3918 16.4184 9.11128 17.0161 7.95916C17.6137 6.80704 18.8002 6.2196 19.6662 6.64708Z" fill="#20469E"/>
</svg>
