<svg width="15" height="16" viewBox="0 0 15 16" fill="none" xmlns="http://www.w3.org/2000/svg">
<path fill-rule="evenodd" clip-rule="evenodd" d="M12.8033 1.66451C11.406 0.267263 10.0376 0.231251 8.60434 1.66451L7.73286 2.53599C7.66083 2.60801 7.63203 2.72325 7.66083 2.82408C8.20821 4.73269 9.7351 6.25958 11.6437 6.80696C11.6725 6.81416 11.7013 6.82136 11.7301 6.82136C11.8094 6.82136 11.8814 6.79255 11.939 6.73493L12.8033 5.86345C13.5163 5.15763 13.862 4.47341 13.862 3.78199C13.8692 3.06896 13.5235 2.37754 12.8033 1.66451ZM14.2293 15.0031H1.26518C0.969884 15.0031 0.725006 14.7582 0.725006 14.4629C0.725006 14.1676 0.969884 13.9227 1.26518 13.9227H14.2293C14.5246 13.9227 14.7695 14.1676 14.7695 14.4629C14.7695 14.7582 14.5246 15.0031 14.2293 15.0031ZM9.7423 7.14549C9.93676 7.26073 10.1384 7.36156 10.3473 7.46239C10.6284 7.58421 10.7098 7.95695 10.4932 8.17359L6.43644 12.2303C6.35002 12.3239 6.16996 12.4104 6.04032 12.432L3.27463 12.8209C3.1882 12.8353 3.10178 12.8425 3.01535 12.8425C2.62642 12.8425 2.26631 12.7057 2.00703 12.4536C1.70453 12.1439 1.56769 11.6829 1.63971 11.1932L2.02863 8.4347C2.05024 8.31226 2.13667 8.13221 2.2303 8.03858L6.28034 3.98853C6.5014 3.76747 6.87322 3.85163 7.00542 4.13493C7.10626 4.33659 7.20709 4.53105 7.32233 4.72552C7.41596 4.88397 7.51679 5.04242 7.60322 5.15045C7.7041 5.30514 7.81755 5.44099 7.89077 5.52867C7.89596 5.53488 7.90095 5.54086 7.90571 5.54658C7.9159 5.55968 7.92551 5.5722 7.93452 5.58394C7.9701 5.63031 7.99651 5.66473 8.01375 5.67622C8.25142 5.96431 8.51791 6.2236 8.75558 6.42526C8.8132 6.48288 8.86362 6.52609 8.87802 6.53329C9.01487 6.64853 9.15891 6.76377 9.28135 6.84299C9.4326 6.95103 9.58385 7.05186 9.7423 7.14549Z" fill="#20469E"/>
</svg>
