<svg width="33" height="34" viewBox="0 0 33 34" fill="none" xmlns="http://www.w3.org/2000/svg">
<path d="M12.777 10.6869C14.9249 11.5293 17.6256 9.86899 18.8091 6.9784C19.9926 4.08781 19.2108 1.0616 17.0629 0.219164C14.9149 -0.623271 12.2143 1.03709 11.0307 3.92768C9.84723 6.81827 10.629 9.84448 12.777 10.6869Z" fill="#F8E7CD"/>
<path d="M8.6185 28.5131C9.9864 29.286 10.4124 30.1148 10.8397 30.9462C11.2698 31.7829 11.7013 32.6223 13.0957 33.4103C17.2389 35.7515 20.7727 30.6466 19.6027 26.4346C19.2207 25.0594 19.1863 23.7544 19.1541 22.5304C19.0876 20.0057 19.0303 17.8258 15.9497 16.0851C12.8709 14.3453 10.9154 15.3855 8.64976 16.5906C7.54954 17.1759 6.37617 17.8 4.9655 18.1636C0.649933 19.2758 -2.09656 24.8255 2.04663 27.1667C3.44106 27.9547 4.39955 27.9007 5.35497 27.8469C6.3043 27.7934 7.2506 27.7401 8.6185 28.5131Z" fill="#F8E7CD"/>
<path d="M29.4353 7.18546C31.2547 8.58485 31.1359 11.7041 29.1699 14.1526C27.2039 16.601 24.1353 17.4515 22.3159 16.0521C20.4965 14.6527 20.6154 11.5334 22.5813 9.08497C24.5473 6.63652 27.6159 5.78608 29.4353 7.18546Z" fill="#F8E7CD"/>
<path d="M3.04694 13.2653C4.77772 13.3883 6.31661 11.6571 6.48415 9.39843C6.65169 7.1398 5.38443 5.20913 3.65365 5.08614C1.92287 4.96316 0.383979 6.69444 0.216439 8.95307C0.0488995 11.2117 1.31616 13.1424 3.04694 13.2653Z" fill="#F8E7CD"/>
<path d="M31.8326 20.9799C32.8068 22.3855 32.0444 24.5555 30.1296 25.8268C28.2148 27.0981 25.8729 26.9893 24.8987 25.5838C23.9244 24.1783 24.6869 22.0083 26.6017 20.7369C28.5164 19.4656 30.8584 19.5744 31.8326 20.9799Z" fill="#F8E7CD"/>
</svg>
