<svg width="25" height="25" viewBox="0 0 25 25" fill="none" xmlns="http://www.w3.org/2000/svg">
<path fill-rule="evenodd" clip-rule="evenodd" d="M0.25 15.5988C0.25 21.6602 2.83977 24.25 8.90116 24.25H15.5988C21.6602 24.25 24.25 21.6602 24.25 15.5988V10.0174C24.25 9.55977 23.8705 9.18023 23.4128 9.18023C22.9551 9.18023 22.5756 9.55977 22.5756 10.0174V15.5988C22.5756 20.7449 20.7449 22.5756 15.5988 22.5756H8.90116C3.75512 22.5756 1.92442 20.7449 1.92442 15.5988V8.90116C1.92442 3.75512 3.75512 1.92442 8.90116 1.92442H14.4826C14.9402 1.92442 15.3198 1.54488 15.3198 1.08721C15.3198 0.629535 14.9402 0.25 14.4826 0.25H8.90116C2.83977 0.25 0.25 2.83977 0.25 8.90116V15.5988ZM15.8779 4.43605C15.8779 6.74674 17.7533 8.62209 20.064 8.62209C22.3747 8.62209 24.25 6.74674 24.25 4.43605C24.25 2.12535 22.3747 0.25 20.064 0.25C17.7533 0.25 15.8779 2.12535 15.8779 4.43605ZM17.5523 4.43605C17.5523 3.05186 18.6798 1.92442 20.064 1.92442C21.4481 1.92442 22.5756 3.05186 22.5756 4.43605C22.5756 5.82023 21.4481 6.94767 20.064 6.94767C18.6798 6.94767 17.5523 5.82023 17.5523 4.43605ZM6.6686 14.2035H12.25C12.7077 14.2035 13.0872 13.824 13.0872 13.3663C13.0872 12.9086 12.7077 12.5291 12.25 12.5291H6.6686C6.21093 12.5291 5.8314 12.9086 5.8314 13.3663C5.8314 13.824 6.21093 14.2035 6.6686 14.2035ZM16.7151 18.6686H6.6686C6.21093 18.6686 5.8314 18.2891 5.8314 17.8314C5.8314 17.3737 6.21093 16.9942 6.6686 16.9942H16.7151C17.1728 16.9942 17.5523 17.3737 17.5523 17.8314C17.5523 18.2891 17.1728 18.6686 16.7151 18.6686Z" fill="#6259EB"/>
</svg>
