<svg width="15" height="16" viewBox="0 0 15 16" fill="none" xmlns="http://www.w3.org/2000/svg">
<path fill-rule="evenodd" clip-rule="evenodd" d="M12.8032 1.66451C11.406 0.267263 10.0376 0.231251 8.60431 1.66451L7.73283 2.53599C7.6608 2.60801 7.632 2.72325 7.6608 2.82408C8.20818 4.73269 9.73507 6.25958 11.6437 6.80696C11.6725 6.81416 11.7013 6.82136 11.7301 6.82136C11.8093 6.82136 11.8814 6.79255 11.939 6.73493L12.8032 5.86345C13.5163 5.15763 13.862 4.47341 13.862 3.78199C13.8692 3.06896 13.5235 2.37754 12.8032 1.66451ZM14.2293 15.0031H1.26515C0.969854 15.0031 0.724976 14.7582 0.724976 14.4629C0.724976 14.1676 0.969854 13.9227 1.26515 13.9227H14.2293C14.5246 13.9227 14.7695 14.1676 14.7695 14.4629C14.7695 14.7582 14.5246 15.0031 14.2293 15.0031ZM9.74227 7.14549C9.93673 7.26073 10.1384 7.36156 10.3473 7.46239C10.6284 7.58421 10.7098 7.95695 10.4931 8.17359L6.43641 12.2303C6.34999 12.3239 6.16993 12.4104 6.04029 12.432L3.2746 12.8209C3.18817 12.8353 3.10175 12.8425 3.01532 12.8425C2.62639 12.8425 2.26628 12.7057 2.007 12.4536C1.7045 12.1439 1.56766 11.6829 1.63968 11.1932L2.0286 8.4347C2.05021 8.31226 2.13664 8.13221 2.23027 8.03858L6.28031 3.98853C6.50137 3.76747 6.87319 3.85163 7.00539 4.13493C7.10623 4.33659 7.20706 4.53105 7.3223 4.72552C7.41593 4.88397 7.51676 5.04242 7.60319 5.15045C7.70407 5.30514 7.81751 5.44099 7.89074 5.52867C7.89593 5.53488 7.90092 5.54086 7.90568 5.54658C7.91587 5.55968 7.92548 5.5722 7.93449 5.58394C7.97007 5.63031 7.99648 5.66473 8.01372 5.67622C8.25139 5.96431 8.51788 6.2236 8.75555 6.42526C8.81317 6.48288 8.86359 6.52609 8.87799 6.53329C9.01484 6.64853 9.15888 6.76377 9.28132 6.84299C9.43257 6.95103 9.58382 7.05186 9.74227 7.14549Z" fill="#20469E"/>
</svg>
