<svg width="24" height="16" viewBox="0 0 24 16" fill="none" xmlns="http://www.w3.org/2000/svg">
<path fill-rule="evenodd" clip-rule="evenodd" d="M8.78396 0.875996C8.78396 0.395998 8.38796 0 7.90796 0C3.53998 0 0 3.55198 0 7.90796C0 12.2639 3.52798 15.8039 7.89596 15.8039C12.2639 15.8039 15.8039 12.2519 15.8039 7.89596C15.8039 7.41597 15.4079 7.01997 14.9279 7.01997C14.4479 7.01997 14.0519 7.41597 14.0519 7.89596C14.0519 11.2799 11.2919 14.0399 7.90796 14.0399C4.52398 14.0399 1.76399 11.2799 1.76399 7.89596C1.76399 4.51198 4.52398 1.75199 7.90796 1.75199C8.38796 1.75199 8.78396 1.35599 8.78396 0.875996ZM15.216 14.9397C15.216 15.4196 15.612 15.8156 16.092 15.8156C20.46 15.8156 24 12.2637 24 7.90768C24 3.5517 20.472 0.0117187 16.104 0.0117187C11.736 0.0117187 8.19606 3.5637 8.19606 7.91968C8.19606 8.39968 8.59206 8.79568 9.07205 8.79568C9.55205 8.79568 9.94805 8.39968 9.94805 7.91968C9.94805 4.5357 12.708 1.77571 16.092 1.77571C19.476 1.77571 22.236 4.5357 22.236 7.91968C22.236 11.3037 19.476 14.0637 16.092 14.0637C15.612 14.0637 15.216 14.4597 15.216 14.9397Z" fill="#6259EB"/>
</svg>
