<svg width="15" height="16" viewBox="0 0 15 16" fill="none" xmlns="http://www.w3.org/2000/svg">
<path fill-rule="evenodd" clip-rule="evenodd" d="M12.8034 1.66451C11.4061 0.267263 10.0377 0.231251 8.60443 1.66451L7.73295 2.53599C7.66093 2.60801 7.63212 2.72325 7.66093 2.82408C8.2083 4.73269 9.73519 6.25958 11.6438 6.80696C11.6726 6.81416 11.7014 6.82136 11.7302 6.82136C11.8095 6.82136 11.8815 6.79255 11.9391 6.73493L12.8034 5.86345C13.5164 5.15763 13.8621 4.47341 13.8621 3.78199C13.8693 3.06896 13.5236 2.37754 12.8034 1.66451ZM14.2294 15.0031H1.26527C0.969976 15.0031 0.725098 14.7582 0.725098 14.4629C0.725098 14.1676 0.969976 13.9227 1.26527 13.9227H14.2294C14.5247 13.9227 14.7696 14.1676 14.7696 14.4629C14.7696 14.7582 14.5247 15.0031 14.2294 15.0031ZM9.74239 7.14549C9.93685 7.26073 10.1385 7.36156 10.3474 7.46239C10.6285 7.58421 10.7099 7.95695 10.4933 8.17359L6.43653 12.2303C6.35011 12.3239 6.17005 12.4104 6.04041 12.432L3.27472 12.8209C3.1883 12.8353 3.10187 12.8425 3.01544 12.8425C2.62652 12.8425 2.2664 12.7057 2.00712 12.4536C1.70462 12.1439 1.56778 11.6829 1.6398 11.1932L2.02872 8.4347C2.05033 8.31226 2.13676 8.13221 2.23039 8.03858L6.28043 3.98853C6.50149 3.76747 6.87331 3.85163 7.00552 4.13493C7.10635 4.33659 7.20718 4.53105 7.32242 4.72552C7.41605 4.88397 7.51688 5.04242 7.60331 5.15045C7.70419 5.30514 7.81764 5.44099 7.89086 5.52867C7.89605 5.53488 7.90104 5.54086 7.9058 5.54658C7.916 5.55968 7.9256 5.5722 7.93461 5.58394C7.97019 5.63031 7.9966 5.66473 8.01384 5.67622C8.25151 5.96431 8.518 6.2236 8.75568 6.42526C8.81329 6.48288 8.86371 6.52609 8.87811 6.53329C9.01496 6.64853 9.15901 6.76377 9.28144 6.84299C9.43269 6.95103 9.58394 7.05186 9.74239 7.14549Z" fill="#20469E"/>
</svg>
