<svg width="33" height="34" viewBox="0 0 33 34" fill="none" xmlns="http://www.w3.org/2000/svg">
<path d="M19.4794 10.6869C17.3314 11.5293 14.6308 9.86899 13.4473 6.9784C12.2637 4.08781 13.0455 1.0616 15.1935 0.219164C17.3414 -0.623271 20.0421 1.03709 21.2256 3.92768C22.4091 6.81827 21.6273 9.84448 19.4794 10.6869Z" fill="#F8E7CD"/>
<path d="M23.6378 28.5131C22.2699 29.286 21.844 30.1148 21.4166 30.9462C20.9865 31.7829 20.555 32.6223 19.1606 33.4103C15.0174 35.7515 11.4836 30.6466 12.6536 26.4346C13.0356 25.0594 13.07 23.7544 13.1022 22.5304C13.1687 20.0057 13.2261 17.8258 16.3066 16.0851C19.3855 14.3453 21.341 15.3855 23.6066 16.5906C24.7068 17.1759 25.8802 17.8 27.2908 18.1636C31.6064 19.2758 34.3529 24.8255 30.2097 27.1667C28.8153 27.9547 27.8568 27.9007 26.9014 27.8469C25.952 27.7934 25.0058 27.7401 23.6378 28.5131Z" fill="#F8E7CD"/>
<path d="M2.82105 7.18546C1.00166 8.58485 1.12048 11.7041 3.08644 14.1526C5.05241 16.601 8.12104 17.4515 9.94043 16.0521C11.7598 14.6527 11.641 11.5334 9.67503 9.08497C7.70907 6.63652 4.64044 5.78608 2.82105 7.18546Z" fill="#F8E7CD"/>
<path d="M29.2094 13.2653C27.4786 13.3883 25.9397 11.6571 25.7722 9.39843C25.6047 7.1398 26.8719 5.20913 28.6027 5.08614C30.3335 4.96316 31.8724 6.69444 32.0399 8.95307C32.2074 11.2117 30.9402 13.1424 29.2094 13.2653Z" fill="#F8E7CD"/>
<path d="M0.423721 20.9799C-0.550491 22.3855 0.211978 24.5555 2.12674 25.8268C4.0415 27.0981 6.38348 26.9893 7.35769 25.5838C8.3319 24.1783 7.56943 22.0083 5.65467 20.7369C3.7399 19.4656 1.39793 19.5744 0.423721 20.9799Z" fill="#F8E7CD"/>
</svg>
