<svg width="19" height="20" viewBox="0 0 19 20" fill="none" xmlns="http://www.w3.org/2000/svg">
<path d="M11.4583 6.28642C10.1948 6.78197 8.60614 5.80529 7.90995 4.10494C7.21376 2.4046 7.67365 0.62447 8.93714 0.12892C10.2006 -0.36663 11.7893 0.610051 12.4854 2.3104C13.1816 4.01074 12.7217 5.79087 11.4583 6.28642Z" fill="#E9ECF5"/>
<path d="M13.9044 16.7724C13.0998 17.2271 12.8492 17.7146 12.5978 18.2036C12.3448 18.6958 12.091 19.1896 11.2707 19.6531C8.83357 21.0303 6.75488 18.0274 7.44311 15.5498C7.66783 14.7408 7.68804 13.9732 7.70699 13.2532C7.74609 11.7681 7.77985 10.4858 9.59193 9.46183C11.403 8.43843 12.5533 9.05029 13.886 9.75919C14.5332 10.1034 15.2234 10.4706 16.0532 10.6844C18.5918 11.3387 20.2074 14.6033 17.7702 15.9804C16.95 16.4439 16.3861 16.4122 15.8241 16.3805C15.2657 16.3491 14.7091 16.3177 13.9044 16.7724Z" fill="#E9ECF5"/>
<path d="M1.65924 4.22674C0.58901 5.04991 0.658903 6.88478 1.81535 8.32505C2.9718 9.76532 4.77688 10.2656 5.84711 9.44241C6.91734 8.61924 6.84744 6.78437 5.69099 5.3441C4.53455 3.90384 2.72947 3.40358 1.65924 4.22674Z" fill="#E9ECF5"/>
<path d="M17.1818 7.80315C16.1637 7.87549 15.2585 6.85709 15.1599 5.52849C15.0614 4.19988 15.8068 3.06419 16.8249 2.99185C17.843 2.91951 18.7483 3.93791 18.8468 5.26651C18.9454 6.59511 18.1999 7.7308 17.1818 7.80315Z" fill="#E9ECF5"/>
<path d="M0.249047 12.3411C-0.324019 13.1679 0.124492 14.4444 1.25082 15.1922C2.37715 15.9401 3.75479 15.8761 4.32785 15.0493C4.90092 14.2225 4.4524 12.946 3.32607 12.1982C2.19974 11.4504 0.82211 11.5144 0.249047 12.3411Z" fill="#E9ECF5"/>
</svg>
