<svg width="19" height="20" viewBox="0 0 19 20" fill="none" xmlns="http://www.w3.org/2000/svg">
<path d="M7.51586 6.28642C8.77935 6.78197 10.368 5.80529 11.0642 4.10494C11.7604 2.4046 11.3005 0.62447 10.037 0.12892C8.77349 -0.36663 7.18486 0.610051 6.48868 2.3104C5.79249 4.01074 6.25238 5.79087 7.51586 6.28642Z" fill="#E9ECF5"/>
<path d="M5.06971 16.7724C5.87435 17.2271 6.12493 17.7146 6.37632 18.2036C6.62931 18.6958 6.88312 19.1896 7.70338 19.6531C10.1405 21.0303 12.2192 18.0274 11.531 15.5498C11.3063 14.7408 11.2861 13.9732 11.2671 13.2532C11.228 11.7681 11.1943 10.4858 9.38219 9.46183C7.57109 8.43843 6.42081 9.05029 5.08809 9.75919C4.4409 10.1034 3.75069 10.4706 2.92088 10.6844C0.382314 11.3387 -1.23327 14.6033 1.2039 15.9804C2.02415 16.4439 2.58797 16.4122 3.14999 16.3805C3.70841 16.3491 4.26506 16.3177 5.06971 16.7724Z" fill="#E9ECF5"/>
<path d="M17.3149 4.22674C18.3851 5.04991 18.3152 6.88478 17.1588 8.32505C16.0023 9.76532 14.1972 10.2656 13.127 9.44241C12.0568 8.61924 12.1267 6.78437 13.2831 5.3441C14.4396 3.90384 16.2447 3.40358 17.3149 4.22674Z" fill="#E9ECF5"/>
<path d="M1.79232 7.80315C2.81042 7.87549 3.71565 6.85709 3.8142 5.52849C3.91276 4.19988 3.16731 3.06419 2.14921 2.99185C1.1311 2.91951 0.22587 3.93791 0.127317 5.26651C0.0287644 6.59511 0.774209 7.7308 1.79232 7.80315Z" fill="#E9ECF5"/>
<path d="M18.7251 12.3411C19.2981 13.1679 18.8496 14.4444 17.7233 15.1922C16.597 15.9401 15.2193 15.8761 14.6463 15.0493C14.0732 14.2225 14.5217 12.946 15.648 12.1982C16.7744 11.4504 18.152 11.5144 18.7251 12.3411Z" fill="#E9ECF5"/>
</svg>
