<svg width="20" height="20" viewBox="0 0 20 20" fill="none" xmlns="http://www.w3.org/2000/svg">
<path fill-rule="evenodd" clip-rule="evenodd" d="M7.31198 14.6079L9.08798 12.8319C9.47198 12.4479 9.46238 11.8335 9.07838 11.4591C9.03037 11.4111 8.97997 11.3631 8.92957 11.3151C8.87917 11.2671 8.82877 11.2191 8.78078 11.1711C8.28158 10.6623 7.82078 10.1535 7.38878 9.65428C6.96638 9.15509 6.66878 8.74229 6.49598 8.42549C6.48559 8.3943 6.47238 8.36312 6.45788 8.32889C6.4456 8.29989 6.43239 8.26871 6.41918 8.23349C6.39998 8.15669 6.39038 8.08949 6.39038 8.01269C6.39038 7.85909 6.43838 7.73429 6.54398 7.62869L7.27358 6.87029C7.50398 6.63989 7.68638 6.40949 7.81118 6.18869C7.94558 5.96789 8.01278 5.73749 8.01278 5.50709C8.01278 5.32469 7.96478 5.12309 7.87838 4.92149C7.79198 4.71029 7.66718 4.48949 7.49438 4.2495L5.26718 1.1103C5.09439 0.860701 4.87359 0.687902 4.62399 0.572702C4.38399 0.457502 4.11519 0.399902 3.84639 0.399902C3.13599 0.399902 2.46399 0.697502 1.84959 1.3023C1.34079 1.7823 0.975993 2.3199 0.745593 2.9055C0.515194 3.4815 0.399994 4.10549 0.399994 4.75829C0.399994 5.75669 0.630393 6.80309 1.08159 7.89749C1.54239 8.98229 2.17599 10.0767 2.96319 11.1711C3.75999 12.2655 4.65279 13.3119 5.64158 14.3103C5.69438 14.3631 5.74718 14.4135 5.79998 14.4639C5.85278 14.5143 5.90558 14.5647 5.95838 14.6175C6.34238 14.9823 6.93758 14.9823 7.31198 14.6079ZM19.4268 16.8928C19.5228 16.624 19.5708 16.3456 19.5708 16.0768C19.5708 15.808 19.5132 15.568 19.4172 15.328C19.3116 15.088 19.1388 14.8864 18.8892 14.7136L15.7116 12.4576C15.4716 12.2944 15.2508 12.1696 15.0396 12.0832C14.8284 11.9968 14.6364 11.9584 14.454 11.9584C14.214 11.9584 13.9932 12.0256 13.7724 12.16C13.5516 12.2752 13.3212 12.4576 13.0812 12.6976L12.3516 13.4176C12.246 13.5232 12.1212 13.5808 11.958 13.5808C11.8716 13.5808 11.7948 13.5712 11.718 13.5424C11.6872 13.5292 11.6584 13.516 11.6316 13.5037C11.6 13.4892 11.5712 13.476 11.5452 13.4656C11.3436 13.36 11.1036 13.2064 10.8348 13.0048L7.69561 16.144C8.05081 16.4416 8.42521 16.72 8.79961 16.9984C9.89401 17.7952 10.998 18.4288 12.102 18.8992C13.206 19.3696 14.2524 19.6 15.2316 19.6C15.894 19.6 16.5084 19.4752 17.0748 19.2448C17.0796 19.2448 17.0844 19.2424 17.0892 19.24C17.094 19.2376 17.0988 19.2352 17.1036 19.2352C17.6892 18.9952 18.2076 18.6208 18.678 18.1024C18.9564 17.7952 19.1676 17.4688 19.3308 17.1232C19.3692 17.0464 19.398 16.9696 19.4268 16.8928Z" fill="#20469E"/>
</svg>
