<svg width="33" height="39" viewBox="0 0 33 39" fill="none" xmlns="http://www.w3.org/2000/svg">
<path d="M12.777 12.5857C14.9249 13.5358 17.6256 11.6632 18.8091 8.4033C19.9926 5.14335 19.2108 1.73045 17.0629 0.780372C14.9149 -0.169709 12.2143 1.70281 11.0307 4.96275C9.84723 8.2227 10.629 11.6356 12.777 12.5857Z" fill="#F8E7CD"/>
<path d="M8.6185 32.6897C9.9864 33.5614 10.4124 34.496 10.8397 35.4336C11.2698 36.3773 11.7013 37.324 13.0957 38.2126C17.2389 40.853 20.7727 35.0958 19.6027 30.3456C19.2207 28.7946 19.1863 27.3229 19.1541 25.9425C19.0876 23.0953 19.0303 20.6368 15.9497 18.6736C12.8709 16.7116 10.9154 17.8846 8.64976 19.2438C7.54954 19.9038 6.37617 20.6077 4.9655 21.0177C0.649933 22.2721 -2.09656 28.5309 2.04663 31.1713C3.44106 32.0599 4.39955 31.999 5.35498 31.9383C6.3043 31.878 7.2506 31.8179 8.6185 32.6897Z" fill="#F8E7CD"/>
<path d="M29.4353 8.63682C31.2547 10.215 31.1359 13.7329 29.1699 16.4942C27.2039 19.2555 24.1353 20.2146 22.3159 18.6364C20.4965 17.0582 20.6154 13.5404 22.5813 10.779C24.5473 8.01773 27.6159 7.05862 29.4353 8.63682Z" fill="#F8E7CD"/>
<path d="M3.04694 15.4936C4.77772 15.6323 6.31661 13.6798 6.48415 11.1325C6.65169 8.58532 5.38443 6.40794 3.65365 6.26925C1.92287 6.13055 0.383979 8.08305 0.216439 10.6303C0.0488995 13.1775 1.31616 15.3549 3.04694 15.4936Z" fill="#F8E7CD"/>
<path d="M31.8326 24.1939C32.8068 25.7791 32.0444 28.2264 30.1296 29.6601C28.2148 31.0939 25.8729 30.9712 24.8987 29.3861C23.9245 27.8009 24.6869 25.3536 26.6017 23.9199C28.5164 22.4861 30.8584 22.6088 31.8326 24.1939Z" fill="#F8E7CD"/>
</svg>
