<svg width="21" height="18" viewBox="0 0 21 18" fill="none" xmlns="http://www.w3.org/2000/svg">
<path d="M7.43639 6.78029C8.72789 6.60832 9.6072 5.04889 9.40037 3.2972C9.19354 1.54551 7.9789 0.264894 6.6874 0.436862C5.39589 0.60883 4.51659 2.16826 4.72341 3.91995C4.93024 5.67164 6.14488 6.95225 7.43639 6.78029Z" fill="#20469E"/>
<path d="M10.2629 16.7232C11.1501 16.7304 11.5874 17.0231 12.0261 17.3168C12.4676 17.6123 12.9105 17.9087 13.8149 17.9161C16.5022 17.9382 16.85 14.4494 15.119 12.6894C14.5538 12.1147 14.1795 11.4796 13.8285 10.8839C13.1045 9.65517 12.4794 8.59422 10.4813 8.57785C8.48434 8.56148 7.80329 9.61058 7.01423 10.8261C6.63105 11.4163 6.2224 12.0458 5.6252 12.6116C3.79823 14.3424 3.96111 17.8354 6.6484 17.8574C7.55284 17.8648 8.01146 17.5758 8.46861 17.2876C8.92285 17.0013 9.37564 16.7159 10.2629 16.7232Z" fill="#20469E"/>
<path d="M14.7054 0.490278C15.9871 0.683334 16.7824 2.25649 16.4817 4.00402C16.181 5.75155 14.8983 7.0117 13.6166 6.81864C12.3348 6.62558 11.5395 5.05243 11.8402 3.3049C12.1409 1.55737 13.4237 0.297222 14.7054 0.490278Z" fill="#20469E"/>
<path d="M3.33661 10.7176C4.22511 10.3045 4.51119 9.02812 3.97559 7.86671C3.43998 6.7053 2.28551 6.09868 1.397 6.51178C0.508497 6.92489 0.222415 8.20128 0.758022 9.36269C1.29363 10.5241 2.4481 11.1307 3.33661 10.7176Z" fill="#20469E"/>
<path d="M19.666 6.64708C20.532 7.07456 20.7495 8.35508 20.1518 9.50721C19.5542 10.6593 18.3677 11.2468 17.5017 10.8193C16.6358 10.3918 16.4182 9.11128 17.0159 7.95916C17.6135 6.80704 18.8 6.2196 19.666 6.64708Z" fill="#20469E"/>
</svg>
