<svg width="14" height="14" viewBox="0 0 14 14" fill="none" xmlns="http://www.w3.org/2000/svg">
<path d="M2.20747 0.657786L2.27742 0.722034L6.99941 5.44426L11.7224 0.722034L11.7923 0.657786C12.2245 0.293715 12.8709 0.315131 13.2778 0.722034C13.7073 1.15154 13.7073 1.84791 13.2778 2.27742L8.55512 6.99941L13.2778 11.7224C13.7073 12.1519 13.7073 12.8483 13.2778 13.2778C12.8709 13.6847 12.2245 13.7061 11.7923 13.342L11.7224 13.2778L6.99941 8.55512L2.27742 13.2778L2.20747 13.342C1.77535 13.7061 1.12894 13.6847 0.722034 13.2778C0.292525 12.8483 0.292525 12.1519 0.722034 11.7224L5.44426 6.99941L0.722034 2.27742C0.292525 1.84791 0.292525 1.15154 0.722034 0.722034C1.12894 0.315131 1.77535 0.293715 2.20747 0.657786Z" fill="#082668"/>
</svg>
