<svg width="16" height="16" viewBox="0 0 16 16" fill="none" xmlns="http://www.w3.org/2000/svg">
<path d="M7.12648 0.800049C10.6205 0.800049 13.453 3.63252 13.453 7.12654C13.453 8.65659 12.9098 10.0598 12.0058 11.1538L15.0235 14.1715C15.2588 14.4068 15.2588 14.7883 15.0235 15.0236C14.7882 15.2589 14.4067 15.2589 14.1714 15.0236L11.1538 12.0059C10.0597 12.9099 8.65653 13.453 7.12648 13.453C3.63246 13.453 0.799988 10.6206 0.799988 7.12654C0.799988 3.63252 3.63246 0.800049 7.12648 0.800049ZM7.12648 2.0051C4.29798 2.0051 2.00503 4.29805 2.00503 7.12654C2.00503 9.95504 4.29798 12.248 7.12648 12.248C9.95498 12.248 12.2479 9.95504 12.2479 7.12654C12.2479 4.29805 9.95498 2.0051 7.12648 2.0051Z" fill="#CED4E1"/>
</svg>
