<svg width="18" height="20" viewBox="0 0 18 20" fill="none" xmlns="http://www.w3.org/2000/svg">
<path d="M16.3297 7.08297C15.6865 6.37265 14.717 5.9599 13.3732 5.81592V5.0864C13.3732 3.77136 12.8165 2.5043 11.8374 1.62121C10.8487 0.718913 9.56245 0.296563 8.22821 0.421348C5.93408 0.642122 4.00471 2.85946 4.00471 5.25918V5.81592C2.66086 5.9599 1.69138 6.37265 1.04825 7.08297C0.117161 8.11965 0.145958 9.50188 0.251545 10.4618L0.923467 15.8083C1.12504 17.6801 1.88335 19.5999 6.01087 19.5999H11.367C15.4946 19.5999 16.2529 17.6801 16.4544 15.8179L17.1264 10.4522C17.232 9.50189 17.2512 8.11965 16.3297 7.08297ZM8.36259 1.75559C9.32248 1.6692 10.2344 1.96677 10.9447 2.60989C11.6454 3.24342 12.039 4.14571 12.039 5.0864V5.75832H5.33895V5.25918C5.33895 3.55058 6.74998 1.90917 8.36259 1.75559ZM5.25256 11.1049H5.24296C4.71502 11.1049 4.28307 10.6729 4.28307 10.145C4.28307 9.61707 4.71502 9.18512 5.24296 9.18512C5.7805 9.18512 6.21245 9.61707 6.21245 10.145C6.21245 10.6729 5.7805 11.1049 5.25256 11.1049ZM11.9718 11.1049H11.9622C11.4342 11.1049 11.0023 10.6729 11.0023 10.145C11.0023 9.61707 11.4342 9.18512 11.9622 9.18512C12.4997 9.18512 12.9317 9.61707 12.9317 10.145C12.9317 10.6729 12.4997 11.1049 11.9718 11.1049Z" fill="#CED4E1"/>
</svg>
