<svg width="14" height="16" viewBox="0 0 14 16" fill="none" xmlns="http://www.w3.org/2000/svg">
<path d="M12.3447 3.57205L8.0679 1.10245C7.3695 0.699249 6.5055 0.699249 5.7999 1.10245L1.5303 3.57205C0.831902 3.97525 0.399902 4.72405 0.399902 5.53765V10.4624C0.399902 11.2688 0.831902 12.0176 1.5303 12.428L5.8071 14.8976C6.5055 15.3008 7.3695 15.3008 8.0751 14.8976L12.3519 12.428C13.0503 12.0248 13.4823 11.276 13.4823 10.4624V5.53765C13.4751 4.72405 13.0431 3.98245 12.3447 3.57205ZM6.3975 4.94005C6.3975 4.64485 6.6423 4.40005 6.9375 4.40005C7.2327 4.40005 7.4775 4.64485 7.4775 4.94005V8.72005C7.4775 9.01525 7.2327 9.26005 6.9375 9.26005C6.6423 9.26005 6.3975 9.01525 6.3975 8.72005V4.94005ZM7.5999 11.3336C7.5639 11.42 7.5135 11.4992 7.4487 11.5712C7.3119 11.708 7.1319 11.78 6.9375 11.78C6.8439 11.78 6.7503 11.7584 6.6639 11.7224C6.5703 11.6864 6.4983 11.636 6.4263 11.5712C6.3615 11.4992 6.3111 11.42 6.2679 11.3336C6.2319 11.2472 6.2175 11.1536 6.2175 11.06C6.2175 10.8728 6.2895 10.6856 6.4263 10.5488C6.4983 10.484 6.5703 10.4336 6.6639 10.3976C6.9303 10.2824 7.2471 10.3472 7.4487 10.5488C7.5135 10.6208 7.5639 10.6928 7.5999 10.7864C7.6359 10.8728 7.6575 10.9664 7.6575 11.06C7.6575 11.1536 7.6359 11.2472 7.5999 11.3336Z" fill="#395186"/>
</svg>
