<svg width="16" height="16" viewBox="0 0 16 16" fill="none" xmlns="http://www.w3.org/2000/svg">
<path d="M7.1263 0.800049C10.6203 0.800049 13.4528 3.63252 13.4528 7.12654C13.4528 8.65659 12.9096 10.0598 12.0056 11.1538L15.0233 14.1715C15.2586 14.4068 15.2586 14.7883 15.0233 15.0236C14.788 15.2589 14.4065 15.2589 14.1712 15.0236L11.1536 12.0059C10.0595 12.9099 8.65635 13.453 7.1263 13.453C3.63227 13.453 0.799805 10.6206 0.799805 7.12654C0.799805 3.63252 3.63227 0.800049 7.1263 0.800049ZM7.1263 2.0051C4.2978 2.0051 2.00485 4.29805 2.00485 7.12654C2.00485 9.95504 4.2978 12.248 7.1263 12.248C9.9548 12.248 12.2477 9.95504 12.2477 7.12654C12.2477 4.29805 9.9548 2.0051 7.1263 2.0051Z" fill="#CED4E1"/>
</svg>
