<svg width="12" height="20" viewBox="0 0 12 20" fill="none" xmlns="http://www.w3.org/2000/svg">
<path d="M10.5294 0.400153H1.21262C1.01469 0.398602 0.822961 0.469794 0.673949 0.600195C0.52494 0.730596 0.428936 0.911042 0.404265 1.10757C0.381287 1.32481 0.451914 1.54162 0.598526 1.70362C0.744998 1.8656 0.953781 1.95752 1.17216 1.95639H1.4754C1.73211 1.95639 1.94019 2.16446 1.94019 2.42118V15.6385C1.94019 16.6962 2.36297 17.7098 3.11464 18.4539C3.8663 19.1979 4.88427 19.6106 5.94172 19.5997C6.96041 19.5838 7.93186 19.1679 8.64642 18.442C9.36117 17.716 9.7615 16.7381 9.7614 15.7194V2.42129C9.7614 2.16457 9.96961 1.95649 10.2263 1.95649H10.5093C10.7072 1.95805 10.8989 1.88685 11.0479 1.75645C11.1969 1.62605 11.2929 1.44561 11.3176 1.24907C11.3412 1.02831 11.2679 0.807957 11.1167 0.645303C10.9656 0.48262 10.7515 0.393242 10.5294 0.40029L10.5294 0.400153ZM8.20533 4.88676V10.1413C8.20533 10.3879 8.10735 10.6243 7.93296 10.7987C7.75872 10.9729 7.52216 11.0709 7.2756 11.0709H4.46642C4.21986 11.0709 3.98344 10.9729 3.80905 10.7987C3.63467 10.6243 3.53683 10.3879 3.53683 10.1413V2.42115C3.53683 2.16443 3.74491 1.95635 4.00163 1.95635H7.74046C7.99732 1.95635 8.2054 2.16443 8.2054 2.42115L8.20533 4.88676Z" fill="#20469E"/>
</svg>
