<svg width="14" height="14" viewBox="0 0 14 14" fill="none" xmlns="http://www.w3.org/2000/svg">
<path d="M2.20759 0.657786L2.27755 0.722034L6.99953 5.44426L11.7225 0.722034L11.7925 0.657786C12.2246 0.293715 12.871 0.315131 13.2779 0.722034C13.7074 1.15154 13.7074 1.84791 13.2779 2.27742L8.55524 6.99941L13.2779 11.7224C13.7074 12.1519 13.7074 12.8483 13.2779 13.2778C12.871 13.6847 12.2246 13.7061 11.7925 13.342L11.7225 13.2778L6.99953 8.55512L2.27755 13.2778L2.20759 13.342C1.77547 13.7061 1.12906 13.6847 0.722156 13.2778C0.292647 12.8483 0.292647 12.1519 0.722156 11.7224L5.44438 6.99941L0.722156 2.27742C0.292647 1.84791 0.292647 1.15154 0.722156 0.722034C1.12906 0.315131 1.77547 0.293715 2.20759 0.657786Z" fill="#082668"/>
</svg>
