<svg width="16" height="16" viewBox="0 0 16 16" fill="none" xmlns="http://www.w3.org/2000/svg">
<path d="M11.0542 0.800049C10.6928 0.800049 10.3997 1.09316 10.3997 1.45463C10.3997 1.81609 10.6928 2.1092 11.0542 2.1092H12.9633L10.3587 4.7138C9.35061 3.90704 8.07769 3.41836 6.69065 3.41836C3.44504 3.41836 0.799805 6.06359 0.799805 9.3092C0.799805 12.5548 3.44504 15.2 6.69065 15.2C9.93626 15.2 12.5815 12.5548 12.5815 9.3092C12.5815 7.92018 12.0948 6.64313 11.2861 5.63428L13.8907 3.02969V4.94561C13.8907 5.30706 14.1838 5.60019 14.5452 5.60019C14.9067 5.60019 15.1998 5.30723 15.1998 4.94561V1.45455C15.1998 1.28105 15.1309 1.11455 15.008 0.991735C14.8852 0.869071 14.7189 0.800127 14.5452 0.800127L11.0542 0.800049ZM6.69065 4.72728C9.22886 4.72728 11.2724 6.77088 11.2724 9.30905C11.2724 11.8473 9.22882 13.8908 6.69065 13.8908C4.15244 13.8908 2.10888 11.8472 2.10888 9.30905C2.10888 6.77096 4.15248 4.72728 6.69065 4.72728Z" fill="#082668"/>
</svg>
