<svg width="10" height="10" viewBox="0 0 10 10" fill="none" xmlns="http://www.w3.org/2000/svg">
<path d="M9.48301 3.67821C9.26799 3.48849 9.00238 3.37465 8.69882 3.37465H6.87748C6.73835 3.37465 6.61187 3.26082 6.61187 3.10904V1.2877C6.61187 0.984141 6.48538 0.718528 6.29566 0.516157C6.09329 0.313785 5.82768 0.199951 5.52412 0.199951H4.44902C4.14546 0.199951 3.87985 0.326433 3.67748 0.516157C3.47511 0.718528 3.36127 0.984141 3.36127 1.2877V3.10904C3.36127 3.24817 3.24744 3.37465 3.09566 3.37465H1.28697C0.983408 3.37465 0.717796 3.50114 0.515424 3.69086C0.313053 3.89323 0.199219 4.15884 0.199219 4.4624V5.5375C0.199219 5.84106 0.325701 6.10667 0.515424 6.30904C0.717796 6.51141 0.983408 6.62525 1.28697 6.62525H3.10831C3.24744 6.62525 3.37392 6.73908 3.37392 6.89086V8.7122C3.37392 9.01576 3.5004 9.28137 3.69013 9.48375C3.8925 9.68612 4.15811 9.79995 4.46167 9.79995H5.53677C5.84033 9.79995 6.10594 9.67347 6.30831 9.48375C6.51068 9.28137 6.62451 9.01576 6.62451 8.7122V6.87821C6.62451 6.73908 6.73835 6.6126 6.89013 6.6126H8.71147C9.01503 6.6126 9.28064 6.48612 9.48301 6.29639C9.68538 6.09402 9.79922 5.82841 9.79922 5.52485V4.44975C9.79922 4.1462 9.67274 3.88058 9.48301 3.67821Z" fill="white"/>
</svg>
